<?xml version="1.0" encoding="utf-8"?>
<!-- Generator: Adobe Illustrator 19.0.1, SVG Export Plug-In . SVG Version: 6.00 Build 0)  -->
<svg version="1.1" id="Layer_1" xmlns="http://www.w3.org/2000/svg" xmlns:xlink="http://www.w3.org/1999/xlink" x="0px" y="0px"
	 viewBox="0 0 567.4 567.4" style="enable-background:new 0 0 567.4 567.4;" xml:space="preserve">
<style type="text/css">
	.st0{fill:#3C4773;}
</style>
<g>
	<g>
		<g>
			<path class="st0" d="M283.2,352.3c-43.5,0-78.8-35.4-78.8-78.8c0-43.5,35.4-78.8,78.8-78.8c43.5,0,78.8,35.4,78.8,78.8
				C362,316.9,326.7,352.3,283.2,352.3z M283.2,203.9c-38.4,0-69.6,31.2-69.6,69.6s31.2,69.6,69.6,69.6c38.4,0,69.6-31.2,69.6-69.6
				S321.6,203.9,283.2,203.9z"/>
		</g>
		<g>
			<path class="st0" d="M283.2,352.3c-25.9,0-46.1-34.6-46.1-78.8c0-44.2,20.3-78.8,46.1-78.8s46.1,34.6,46.1,78.8
				C329.4,317.7,309.1,352.3,283.2,352.3z M283.2,203.9c-20,0-36.9,31.9-36.9,69.6c0,37.7,16.9,69.6,36.9,69.6
				c20,0,36.9-31.9,36.9-69.6C320.1,235.7,303.2,203.9,283.2,203.9z"/>
		</g>
		<g>
			<rect x="278.6" y="199.3" class="st0" width="9.2" height="148.4"/>
		</g>
		<g>
			<rect x="209" y="268.8" class="st0" width="148.4" height="9.2"/>
		</g>
		<g>
			<path class="st0" d="M283.2,249.5c-24.3,0-46.8-6.3-61.8-17.3l5.5-7.4c13.2,9.7,34.3,15.5,56.3,15.5c22,0,43.1-5.8,56.3-15.5
				l5.5,7.4C330,243.2,307.5,249.5,283.2,249.5z"/>
		</g>
		<g>
			<path class="st0" d="M226.9,322.1l-5.5-7.4c14.9-11,37.5-17.3,61.8-17.3c24.3,0,46.8,6.3,61.8,17.3l-5.5,7.4
				c-13.2-9.7-34.3-15.5-56.3-15.5C261.2,306.7,240.1,312.4,226.9,322.1z"/>
		</g>
	</g>
	<g>
		<g>
			<path class="st0" d="M167.7,286.3c-0.5-4.2-0.7-8.5-0.7-12.8h9.2c0,3.9,0.2,7.9,0.6,11.8L167.7,286.3z"/>
		</g>
		<g>
			<path class="st0" d="M283.2,389.7l-0.2-9.2h0.2c8,0,16-0.9,23.7-2.6l2,9C300.6,388.7,291.9,389.7,283.2,389.7z M270.1,389
				c-8.7-1-17.2-2.9-25.4-5.8l3.1-8.7c7.5,2.6,15.4,4.4,23.4,5.3L270.1,389z M321.5,383.3l-3-8.7c7.6-2.6,14.8-6.1,21.6-10.4
				l4.9,7.8C337.6,376.6,329.7,380.4,321.5,383.3z M232.6,378.2c-7.8-3.8-15.2-8.5-22-13.9l5.8-7.2c6.3,5,13.1,9.3,20.3,12.8
				L232.6,378.2z M355.6,364.4l-5.8-7.2c6.3-5,12-10.7,17-16.9l7.2,5.8C368.6,352.8,362.4,359,355.6,364.4z M200.9,355.5
				c-6.1-6.2-11.6-13-16.2-20.4l7.8-4.9c4.2,6.8,9.3,13.1,14.9,18.8L200.9,355.5z M381.6,335.4l-7.8-4.9c4.3-6.8,7.8-14,10.4-21.6
				l8.7,3.1C390.1,320.2,386.2,328.1,381.6,335.4z M178.4,323.7c-3.8-7.8-6.7-16.1-8.6-24.6l9-2c1.8,7.8,4.4,15.4,7.9,22.6
				L178.4,323.7z M396.6,299.4l-9-2.1c1.8-7.8,2.7-15.8,2.7-23.8l9.2,0C399.5,282.3,398.5,291,396.6,299.4z M389.6,261.6
				c-0.9-8-2.7-15.8-5.3-23.4l8.7-3c2.9,8.2,4.8,16.8,5.7,25.4L389.6,261.6z M379.7,227.1c-3.5-7.2-7.8-14-12.8-20.3l7.2-5.8
				c5.4,6.8,10.1,14.2,13.9,22.1L379.7,227.1z M359,197.8c-5.7-5.7-12-10.7-18.7-15l4.9-7.8c7.3,4.6,14.2,10.1,20.3,16.3L359,197.8z
				 M329.7,177.1c-7.2-3.5-14.8-6.2-22.6-7.9l2.1-9c8.5,1.9,16.7,4.8,24.6,8.6L329.7,177.1z"/>
		</g>
		<g>
			<path class="st0" d="M295,167.1c-3.9-0.4-7.8-0.6-11.8-0.6v-9.2c4.3,0,8.6,0.2,12.8,0.7L295,167.1z"/>
		</g>
	</g>
	<g>
		<g>
			<g>
				<path class="st0" d="M194.3,205c-5.3,0-10.5-2-14.5-6c-8-8-8-21,0-29c7.7-7.7,21.2-7.7,29,0l0,0l0,0l0,0c3.9,3.9,6,9,6,14.5
					c0,5.5-2.1,10.6-6,14.5C204.8,203,199.5,205,194.3,205z M194.3,173.2c-3,0-5.8,1.2-8,3.3c-4.4,4.4-4.4,11.5,0,15.9
					c4.4,4.4,11.5,4.4,15.9,0c2.1-2.1,3.3-5,3.3-8c0-3-1.2-5.8-3.3-8l0,0C200.1,174.4,197.3,173.2,194.3,173.2z"/>
			</g>
			<g>
				
					<rect x="171.7" y="192.9" transform="matrix(0.7071 0.7071 -0.7071 0.7071 194.7847 -65.3617)" class="st0" width="9.2" height="19.1"/>
			</g>
			<g>
				<path class="st0" d="M149.3,249l-19.5-19.5l33.3-33.3l19.5,19.5L149.3,249z M142.8,229.5l6.5,6.5l20.3-20.3l-6.5-6.5
					L142.8,229.5z"/>
			</g>
			<g>
				
					<rect x="207.6" y="157" transform="matrix(0.7071 0.7071 -0.7071 0.7071 179.9243 -101.2999)" class="st0" width="9.2" height="19.1"/>
			</g>
			<g>
				<path class="st0" d="M225.5,172.8l-19.5-19.5l33.3-33.3l19.5,19.5L225.5,172.8z M219,153.3l6.5,6.5l20.3-20.3l-6.5-6.5
					L219,153.3z"/>
			</g>
			<g>
				
					<rect x="173.2" y="164.6" transform="matrix(0.7071 0.7071 -0.7071 0.7071 172.033 -76.9822)" class="st0" width="11.6" height="9.2"/>
			</g>
		</g>
		<g>
			<path class="st0" d="M194.3,217.7v-9.2c13.2,0,23.9-10.7,23.9-23.9h9.2C227.4,202.8,212.6,217.7,194.3,217.7z"/>
		</g>
		<g>
			<path class="st0" d="M194.3,229.5v-9.2c19.7,0,35.8-16,35.8-35.8h9.2C239.3,209.3,219.1,229.5,194.3,229.5z"/>
		</g>
	</g>
</g>
</svg>
