<?xml version="1.0" encoding="utf-8"?>
<!-- Generator: Adobe Illustrator 19.0.1, SVG Export Plug-In . SVG Version: 6.00 Build 0)  -->
<svg version="1.1" id="Layer_1" xmlns="http://www.w3.org/2000/svg" xmlns:xlink="http://www.w3.org/1999/xlink" x="0px" y="0px"
	 viewBox="0 0 567.4 567.4" style="enable-background:new 0 0 567.4 567.4;" xml:space="preserve">
<style type="text/css">
	.st0{fill:#3C4773;}
</style>
<g>
	<path class="st0" d="M302.4,297.4c5.5,0,10,4.5,10,10c0,5.5-4.5,10-10,10c-5.5,0-10-4.5-10-10C292.4,301.9,296.9,297.4,302.4,297.4
		L302.4,297.4z M331.4,226.4c37.7,0,81,24.2,81,66c0,32-26.7,54.9-55.7,62.7l3.6,29.6c0.4,3.3-1.9,6.3-5.2,6.7
		c-2,0.2-3.9-0.5-5.1-1.9l-33.7-32.2c-32.8-5.1-65.9-28.9-65.9-64.8C250.4,250.6,293.7,226.4,331.4,226.4L331.4,226.4z M331.4,238.4
		c-31,0-69,19.1-69,54c0,30.3,29.9,49.5,57.2,53.2c1.3,0.1,2.5,0.7,3.6,1.6l23.3,22.2l-2.2-18.3c-0.4-3.1,1.7-6,4.7-6.6
		c25.4-5.2,51.5-24.1,51.5-52.3C400.4,257.5,362.4,238.4,331.4,238.4L331.4,238.4z M362.4,297.4c5.5,0,10,4.5,10,10
		c0,5.5-4.5,10-10,10c-5.5,0-10-4.5-10-10C352.4,301.9,356.9,297.4,362.4,297.4L362.4,297.4z M332.4,297.4c5.5,0,10,4.5,10,10
		c0,5.5-4.5,10-10,10c-5.5,0-10-4.5-10-10C322.4,301.9,326.9,297.4,332.4,297.4L332.4,297.4z"/>
	<path class="st0" d="M180.6,194.3c14.6-11.7,34.7-18.9,56.8-18.9c22.1,0,42.2,7.2,56.8,18.9c8.3,6.6,14.8,14.7,19,23.7
		c-37.4,6.7-72.8,33.4-72.8,74.4c0,7.8,1.3,15.1,3.7,21.9l-25.3,24.2c-1.3,1.4-3.2,2.1-5.1,1.9c-3.3-0.4-5.6-3.4-5.2-6.7l3.6-29.6
		c-15.3-4.1-28.6-11.8-38.3-21.8c-10.9-11.3-17.4-25.4-17.4-40.9C156.4,222.9,165.7,206.3,180.6,194.3L180.6,194.3z"/>
</g>
</svg>
